# xmcd
#
# Track frame offsets:
#	150
#	12075
#	24984
#	38394
#	52366
#	70161
#	86811
#	102525
#	118452
#	136371
#	150675
#	159767
#	176464
#	194633
#	211563
#
# Disc length: 3097 seconds
#
# Revision: 1
# Processed by: cddbd v1.5.2PL0 Copyright (c) Steve Scherf et al.
# Submitted via: audiograbber 1.83.01
#
DISCID=c70c170f
DTITLE=Various Artist - Classic Country 1978-1980 [Disc1]
DYEAR=2001
DGENRE=Country
TTITLE0=Johnny Paycheck - Take This Job And Shove It
TTITLE1=Eddie Rabbitt - Every Which Way But Loose
TTITLE2=Dolly Parton - Here You Come Again
TTITLE3=Willie Nelson - My Heroes Have Always Been Cowboys
TTITLE4=Randy Vanwarmer - Just When I Needed You Most
TTITLE5=Don McLean - Crying
TTITLE6=Jennifer Warnes - I Know A Heartache When I See One
TTITLE7=Mac Davis - It's Hard To Be Humble
TTITLE8=Ronnie Milsap - What A Difference You've Made In My Life
TTITLE9=The Bellamy Brothers - If I Said You Had A Beautiful Body Would You Hol
TTITLE9=d It Against Me?
TTITLE10=Charley Pride - Honky Tonk Blues
TTITLE11=Emmylou Harris - Save The Last Dance For Me
TTITLE12=Don Williams - I Believe In You
TTITLE13=Colleen Hewitt - Dreaming My Dreams With You
TTITLE14=Tanya Tucker - Texas (When I Die)
EXTD=YEAR: 2001
EXTT0=
EXTT1=
EXTT2=
EXTT3=
EXTT4=
EXTT5=
EXTT6=
EXTT7=
EXTT8=
EXTT9=
EXTT10=
EXTT11=
EXTT12=
EXTT13=
EXTT14=
PLAYORDER=
